<mxfile host="app.diagrams.net" modified="2024-04-07T12:46:59.111Z" agent="Mozilla/5.0 (Windows NT 10.0; Win64; x64) AppleWebKit/537.36 (KHTML, like Gecko) Chrome/123.0.0.0 Safari/537.36" etag="BTqbd7Almtl1UAYvLfyf" version="23.1.7" type="device">
  <diagram name="Halaman-1" id="quQY--S-zX8sKLz99Ocw">
    <mxGraphModel dx="419" dy="223" grid="1" gridSize="10" guides="1" tooltips="1" connect="1" arrows="1" fold="1" page="1" pageScale="1" pageWidth="827" pageHeight="1169" math="0" shadow="0">
      <root>
        <mxCell id="0" />
        <mxCell id="1" parent="0" />
        <mxCell id="aILmEIebjc8XxtWw0dU9-1" value="" style="whiteSpace=wrap;html=1;aspect=fixed;align=left;movable=0;resizable=0;rotatable=0;deletable=0;editable=0;locked=1;connectable=0;" vertex="1" parent="1">
          <mxGeometry x="270" y="60" width="320" height="320" as="geometry" />
        </mxCell>
        <mxCell id="aILmEIebjc8XxtWw0dU9-2" value="&lt;b&gt;Use Case Diagram&lt;/b&gt;" style="text;html=1;align=center;verticalAlign=middle;resizable=0;points=[];autosize=1;strokeColor=none;fillColor=none;" vertex="1" parent="1">
          <mxGeometry x="365" y="70" width="130" height="30" as="geometry" />
        </mxCell>
        <mxCell id="aILmEIebjc8XxtWw0dU9-3" value="Pengguna" style="shape=umlActor;verticalLabelPosition=bottom;verticalAlign=top;html=1;outlineConnect=0;" vertex="1" parent="1">
          <mxGeometry x="210" y="100" width="30" height="60" as="geometry" />
        </mxCell>
      </root>
    </mxGraphModel>
  </diagram>
</mxfile>
